<?xml version="1.0" encoding="UTF-8" standalone="no"?>
<svg
   xmlns:dc="http://purl.org/dc/elements/1.1/"
   xmlns:cc="http://creativecommons.org/ns#"
   xmlns:rdf="http://www.w3.org/1999/02/22-rdf-syntax-ns#"
   xmlns:svg="http://www.w3.org/2000/svg"
   xmlns="http://www.w3.org/2000/svg"
   version="1.0"
   id="Capa_1"
   x="0px"
   y="0px"
   width="198.98079"
   height="207.36168"
   viewBox="0 0 198.98079 207.36168"
   enable-background="new 0 0 1200 1199.999"
   xml:space="preserve"><metadata
   id="metadata35"><rdf:RDF><cc:Work
       rdf:about=""><dc:format>image/svg+xml</dc:format><dc:type
         rdf:resource="http://purl.org/dc/dcmitype/StillImage" /><dc:title></dc:title></cc:Work></rdf:RDF></metadata>
<g
   id="g18"
   style="fill:#000000"
   transform="translate(-913.68445,-496.3188)">
		<g
   id="g4"
   style="fill:#000000">
			<path
   fill="#77411d"
   d="m 992.144,689.129 c 11.855,-24.492 -24.971,-87.946 -24.971,-87.946 0,0 -29.708,19.636 -26.49,67.332 2.63,38.972 39.605,45.106 51.461,20.614 z"
   id="path2"
   style="fill:#000000" />
		</g>
		<g
   id="g8"
   style="fill:#000000">
			<path
   fill="#77411d"
   d="m 956.521,600.437 c 0,0 -16.662,-32.241 -29.62,-33.508 -12.958,-1.268 -19.714,15.439 -4.476,26.275 5.082,3.614 9.908,5.668 14.268,6.795 -4.36,1.128 -9.186,3.181 -14.268,6.796 -15.238,10.836 -8.482,27.543 4.476,26.275 12.958,-1.267 29.62,-32.633 29.62,-32.633 z"
   id="path6"
   style="fill:#000000" />
		</g>
		<g
   id="g12"
   style="fill:#000000">
			<path
   fill="#77411d"
   d="m 975.583,599.709 c -0.016,0.001 -0.084,0.005 -0.084,0.005 0,0 0.016,0.117 0.04,0.285 -0.024,0.168 -0.04,0.286 -0.04,0.286 0,0 0.068,0.004 0.084,0.005 0.899,5.681 9.979,52.116 69.404,76.994 51.776,21.676 83.45,-22.179 59.603,-53.264 -12.352,-16.101 -46.53,-22.032 -76.622,-24.021 30.092,-1.988 64.27,-7.92 76.622,-24.02 23.848,-31.085 -7.826,-74.94 -59.603,-53.265 -59.425,24.879 -68.505,71.314 -69.404,76.995 z"
   id="path10"
   style="fill:#000000" />
		</g>
		<g
   id="g16"
   style="fill:#000000">
			<path
   fill="#77411d"
   d="m 967.173,598.816 c 0,0 36.826,-63.454 24.971,-87.946 -11.856,-24.492 -48.83,-18.357 -51.46,20.614 -3.219,47.695 26.489,67.332 26.489,67.332 z"
   id="path14"
   style="fill:#000000" />
		</g>
	</g>
</svg>
