<?xml version="1.0" encoding="UTF-8" standalone="no"?>
<svg
   xmlns:dc="http://purl.org/dc/elements/1.1/"
   xmlns:cc="http://creativecommons.org/ns#"
   xmlns:rdf="http://www.w3.org/1999/02/22-rdf-syntax-ns#"
   xmlns:svg="http://www.w3.org/2000/svg"
   xmlns="http://www.w3.org/2000/svg"
   width="61.3522mm"
   height="2.740165mm"
   viewBox="0 0 61.3522 2.740165"
   version="1.1"
   id="svg8">
  <defs
     id="defs2" />
  <metadata
     id="metadata5">
    <rdf:RDF>
      <cc:Work
         rdf:about="">
        <dc:format>image/svg+xml</dc:format>
        <dc:type
           rdf:resource="http://purl.org/dc/dcmitype/StillImage" />
        <dc:title></dc:title>
      </cc:Work>
    </rdf:RDF>
  </metadata>
  <g
     id="layer1"
     transform="translate(-141.04733,71.13229)">
    <path
       id="path3234"
       style="font-variation-settings:normal;opacity:1;vector-effect:none;fill:#000000;fill-opacity:1;stroke:none;stroke-width:0.35675;stroke-linecap:butt;stroke-linejoin:miter;stroke-miterlimit:4;stroke-dasharray:none;stroke-dashoffset:20.5908;stroke-opacity:1;paint-order:stroke fill markers;stop-color:#000000;stop-opacity:1"
       d="m 171.3794,-70.716055 c -3.33659,-0.266837 -6.54598,-0.432818 -9.7195,-0.414918 0,0 0,0 0,0 -5.70784,0.03373 -11.62974,0.58535 -14.96311,0.919518 -3.68421,0.369337 -5.65675,0.626809 -5.64944,0.727439 0.009,0.112655 1.99783,0.06362 5.69574,-0.131531 3.13246,-0.165312 9.47796,-0.573963 14.91681,-0.541493 0,0 0,0 0,0 3.27304,0.01869 6.56855,0.216564 10.03203,0.501041 1.67006,0.137169 3.34155,0.29122 4.99027,0.444556 0,0 1e-5,0 1e-5,0 5.59076,0.521275 9.95224,0.873167 14.44915,0.812535 7.06489,-0.0974 11.28136,-0.871511 11.26814,-1.023194 -0.0145,-0.151566 -4.27762,0.322179 -11.26814,0.224833 -4.53205,-0.06172 -8.6833,-0.46792 -14.35204,-1.026735 0,0 0,-1e-6 0,-1e-6 -1.64999,-0.163035 -3.32452,-0.322106 -5.00301,-0.459846 -0.13239,-0.01088 -0.2648,-0.02162 -0.39723,-0.03223 1e-4,9e-6 2.1e-4,1.7e-5 3.2e-4,2.6e-5 z" />
  </g>
</svg>
