<?xml version="1.0" encoding="UTF-8" standalone="no"?>
<svg
   xmlns:dc="http://purl.org/dc/elements/1.1/"
   xmlns:cc="http://creativecommons.org/ns#"
   xmlns:rdf="http://www.w3.org/1999/02/22-rdf-syntax-ns#"
   xmlns:svg="http://www.w3.org/2000/svg"
   xmlns="http://www.w3.org/2000/svg"
   width="61.352161mm"
   height="2.3007352mm"
   viewBox="0 0 61.352161 2.3007352"
   version="1.1"
   id="svg8">
  <defs
     id="defs2" />
  <metadata
     id="metadata5">
    <rdf:RDF>
      <cc:Work
         rdf:about="">
        <dc:format>image/svg+xml</dc:format>
        <dc:type
           rdf:resource="http://purl.org/dc/dcmitype/StillImage" />
        <dc:title></dc:title>
      </cc:Work>
    </rdf:RDF>
  </metadata>
  <g
     id="layer1"
     transform="translate(-143.11561,-42.411329)">
    <path
       id="path2667-4"
       style="font-variation-settings:normal;opacity:1;vector-effect:none;fill:#000000;fill-opacity:1;stroke:none;stroke-width:0.157;stroke-linecap:butt;stroke-linejoin:miter;stroke-miterlimit:4;stroke-dasharray:none;stroke-dashoffset:20.5908;stroke-opacity:1;paint-order:stroke fill markers;stop-color:#000000;stop-opacity:1"
       d="m 173.42749,42.839806 c -3.33374,-0.267038 -6.53343,-0.437267 -9.69932,-0.428126 0,0 0,1e-6 0,1e-6 -5.65818,0.01711 -11.65168,0.534627 -14.95196,0.82706 -3.65862,0.324185 -5.66456,0.527577 -5.66059,0.581658 0.004,0.05405 2.02017,-0.04146 5.68459,-0.2773 3.20196,-0.206073 9.40306,-0.650761 14.92796,-0.633942 0,0 0,0 0,0 3.28056,0.0095 6.58693,0.203244 10.05267,0.487842 1.67218,0.137312 3.34431,0.292582 4.99339,0.448296 0,0 0,0 0,0 5.60654,0.530066 9.92319,0.896023 14.4254,0.864929 7.04671,-0.04976 11.27459,-0.750405 11.26814,-0.827911 -0.008,-0.07739 -4.25943,0.469826 -11.26814,0.420115 -4.51973,-0.03135 -8.72985,-0.42515 -14.3758,-0.974341 0,0 0,0 0,0 -1.64971,-0.160667 -3.32342,-0.318503 -4.99989,-0.456107 0.002,1.58e-4 -0.39868,-0.03236 -0.39677,-0.0322 1.1e-4,8e-6 2.1e-4,1.7e-5 3.2e-4,2.5e-5 z" />
  </g>
</svg>
